M48
; DRILL file {KiCad 9.0.1} date 2025-05-27T01:22:20+0100
; FORMAT={-:-/ absolute / metric / decimal}
; #@! TF.CreationDate,2025-05-27T01:22:20+01:00
; #@! TF.GenerationSoftware,Kicad,Pcbnew,9.0.1
; #@! TF.FileFunction,Plated,1,2,PTH
FMAT,2
METRIC
; #@! TA.AperFunction,Plated,PTH,ComponentDrill
T1C0.800
; #@! TA.AperFunction,Plated,PTH,ComponentDrill
T2C0.889
; #@! TA.AperFunction,Plated,PTH,ComponentDrill
T3C0.899
; #@! TA.AperFunction,Plated,PTH,ComponentDrill
T4C0.900
; #@! TA.AperFunction,Plated,PTH,ComponentDrill
T5C1.000
; #@! TA.AperFunction,Plated,PTH,ComponentDrill
T6C1.200
; #@! TA.AperFunction,Plated,PTH,ComponentDrill
T7C1.397
; #@! TA.AperFunction,Plated,PTH,ComponentDrill
T8C1.500
%
G90
G05
T1
X164.056Y-58.587
X174.216Y-58.587
T2
X113.895Y-65.48
X113.895Y-68.02
X113.895Y-70.56
X121.515Y-78.18
X124.055Y-78.18
X126.595Y-78.18
X178.895Y-86.48
X178.895Y-89.02
X178.895Y-91.56
X186.515Y-99.18
X189.055Y-99.18
X191.595Y-99.18
T3
X120.88Y-55.32
X120.88Y-60.4
X127.23Y-55.32
X127.23Y-60.4
X185.88Y-76.32
X185.88Y-81.4
X192.23Y-76.32
X192.23Y-81.4
T4
X167.806Y-51.087
X170.346Y-51.087
T5
X108.525Y-44.255
X113.025Y-44.255
X124.46Y-86.36
X124.46Y-111.76
X127.0Y-86.36
X127.0Y-111.76
X129.54Y-86.36
X129.54Y-111.76
X132.08Y-86.36
X132.08Y-111.76
X134.62Y-86.36
X134.62Y-111.76
X137.16Y-86.36
X137.16Y-111.76
X139.7Y-86.36
X139.7Y-111.76
X142.24Y-86.36
X142.24Y-111.76
X144.78Y-86.36
X144.78Y-111.76
X147.32Y-86.36
X147.32Y-111.76
X149.86Y-86.36
X149.86Y-111.76
X152.4Y-86.36
X152.4Y-111.76
X154.94Y-86.36
X154.94Y-111.76
X157.48Y-86.36
X157.48Y-111.76
X159.055Y-53.02
X160.02Y-86.36
X160.02Y-111.76
X179.055Y-53.02
X225.08Y-44.255
X229.58Y-44.255
T6
X152.829Y-65.52
X152.829Y-70.52
X165.329Y-65.52
X165.329Y-70.52
X172.781Y-65.52
X172.781Y-70.52
X185.281Y-65.52
X185.281Y-70.52
X195.844Y-60.52
X195.844Y-65.52
X207.844Y-48.52
X207.844Y-53.52
X207.844Y-72.52
X207.844Y-77.52
X208.344Y-60.52
X208.344Y-65.52
X219.844Y-60.52
X219.844Y-65.52
X220.344Y-48.52
X220.344Y-53.52
X220.344Y-72.52
X220.344Y-77.52
X232.344Y-60.52
X232.344Y-65.52
T7
X116.435Y-61.353
X116.435Y-74.688
X131.675Y-61.353
X131.675Y-74.688
X181.435Y-82.353
X181.435Y-95.688
X196.675Y-82.353
X196.675Y-95.688
T8
X107.275Y-46.755
X114.275Y-46.755
X223.83Y-46.755
X230.83Y-46.755
M30
