%TF.GenerationSoftware,KiCad,Pcbnew,9.0.1*%
%TF.CreationDate,2025-05-25T22:24:14+01:00*%
%TF.ProjectId,Controller,436f6e74-726f-46c6-9c65-722e6b696361,rev?*%
%TF.SameCoordinates,Original*%
%TF.FileFunction,Soldermask,Bot*%
%TF.FilePolarity,Negative*%
%FSLAX46Y46*%
G04 Gerber Fmt 4.6, Leading zero omitted, Abs format (unit mm)*
G04 Created by KiCad (PCBNEW 9.0.1) date 2025-05-25 22:24:14*
%MOMM*%
%LPD*%
G01*
G04 APERTURE LIST*
%ADD10C,1.800000*%
%ADD11O,2.900000X1.700000*%
%ADD12R,1.700000X1.700000*%
%ADD13C,1.700000*%
%ADD14C,2.400000*%
%ADD15C,1.981200*%
%ADD16C,2.489200*%
%ADD17R,1.800000X1.800000*%
%ADD18C,1.600000*%
%ADD19O,1.600000X1.600000*%
G04 APERTURE END LIST*
D10*
%TO.C,SW8*%
X159079452Y-63520108D03*
X159079452Y-72520108D03*
D11*
X152829452Y-65520108D03*
X165329452Y-65520108D03*
X152829452Y-70520108D03*
X165329452Y-70520108D03*
%TD*%
D12*
%TO.C,J5*%
X160020000Y-86360000D03*
D13*
X157480000Y-86360000D03*
X154940000Y-86360000D03*
X152400000Y-86360000D03*
X149860000Y-86360000D03*
X147320000Y-86360000D03*
X144780000Y-86360000D03*
X142240000Y-86360000D03*
X139700000Y-86360000D03*
X137160000Y-86360000D03*
X134620000Y-86360000D03*
X132080000Y-86360000D03*
X129540000Y-86360000D03*
X127000000Y-86360000D03*
X124460000Y-86360000D03*
%TD*%
D12*
%TO.C,J2*%
X160020000Y-111760000D03*
D13*
X157480000Y-111760000D03*
X154940000Y-111760000D03*
X152400000Y-111760000D03*
X149860000Y-111760000D03*
X147320000Y-111760000D03*
X144780000Y-111760000D03*
X142240000Y-111760000D03*
X139700000Y-111760000D03*
X137160000Y-111760000D03*
X134620000Y-111760000D03*
X132080000Y-111760000D03*
X129540000Y-111760000D03*
X127000000Y-111760000D03*
X124460000Y-111760000D03*
%TD*%
D14*
%TO.C,SW5*%
X223829999Y-46755000D03*
X230829999Y-46755000D03*
D13*
X225079999Y-44255000D03*
X229579999Y-44255000D03*
%TD*%
D10*
%TO.C,SW3*%
X214094180Y-70520108D03*
X214094180Y-79520108D03*
D11*
X207844180Y-72520108D03*
X220344180Y-72520108D03*
X207844180Y-77520108D03*
X220344180Y-77520108D03*
%TD*%
D10*
%TO.C,SW4*%
X202094180Y-58520108D03*
X202094180Y-67520108D03*
D11*
X195844180Y-60520108D03*
X208344180Y-60520108D03*
X195844180Y-65520108D03*
X208344180Y-65520108D03*
%TD*%
D15*
%TO.C,RV2*%
X178895452Y-86480108D03*
X178895452Y-89020108D03*
X178895452Y-91560108D03*
X186515452Y-99180108D03*
X189055452Y-99180108D03*
X191595452Y-99180108D03*
X185880452Y-76320108D03*
X192230452Y-76320108D03*
X185880452Y-81400108D03*
X192230452Y-81400108D03*
D16*
X181435452Y-82352608D03*
X181435452Y-95687608D03*
X196675452Y-82352608D03*
X196675452Y-95687608D03*
%TD*%
D14*
%TO.C,SW6*%
X107005452Y-46755000D03*
X114005452Y-46755000D03*
D13*
X108255452Y-44255000D03*
X112755452Y-44255000D03*
%TD*%
D12*
%TO.C,J3*%
X179055452Y-53020108D03*
%TD*%
D15*
%TO.C,RV1*%
X113895452Y-65480108D03*
X113895452Y-68020108D03*
X113895452Y-70560108D03*
X121515452Y-78180108D03*
X124055452Y-78180108D03*
X126595452Y-78180108D03*
X120880452Y-55320108D03*
X127230452Y-55320108D03*
X120880452Y-60400108D03*
X127230452Y-60400108D03*
D16*
X116435452Y-61352608D03*
X116435452Y-74687608D03*
X131675452Y-61352608D03*
X131675452Y-74687608D03*
%TD*%
D17*
%TO.C,D1*%
X167805729Y-51087338D03*
D10*
X170345729Y-51087338D03*
%TD*%
%TO.C,SW2*%
X226094180Y-58520108D03*
X226094180Y-67520108D03*
D11*
X219844180Y-60520108D03*
X232344180Y-60520108D03*
X219844180Y-65520108D03*
X232344180Y-65520108D03*
%TD*%
D18*
%TO.C,R1*%
X164055729Y-58587338D03*
D19*
X174215729Y-58587338D03*
%TD*%
D10*
%TO.C,SW7*%
X179031452Y-63520108D03*
X179031452Y-72520108D03*
D11*
X172781452Y-65520108D03*
X185281452Y-65520108D03*
X172781452Y-70520108D03*
X185281452Y-70520108D03*
%TD*%
D12*
%TO.C,J1*%
X159055452Y-53020108D03*
%TD*%
D10*
%TO.C,SW1*%
X214094180Y-46520108D03*
X214094180Y-55520108D03*
D11*
X207844180Y-48520108D03*
X220344180Y-48520108D03*
X207844180Y-53520108D03*
X220344180Y-53520108D03*
%TD*%
M02*
